<?xml version="1.0" encoding="UTF-8" standalone="no"?>
<svg
   width="50px"
   height="47.62px"
   viewBox="0 0 15.875001 15.127044"
   version="1.1"
   id="svg5"
   xmlns="http://www.w3.org/2000/svg"
   xmlns:svg="http://www.w3.org/2000/svg">
   <defs
     id="defs2" />
   <g
     id="g49"
     transform="matrix(0.09202693,0,0,0.09202693,0.02182184,0.02190307)">
      <g
       id="g31"
       style="stroke:white;stroke-width:0.529167;stroke-dasharray:none">
         <path
         d="M 71.61475,0.02687174 C 71.170943,0.03283902 70.73302,0.19172736 70.302686,0.52968343 61.42674,7.4983751 53.589697,22.305848 55.489119,34.69659 c 0.808452,5.273875 2.050063,9.967685 3.59513,14.115934 6.442873,5.071184 10.759696,10.551368 13.446724,15.758212 0.448561,-1.588751 -0.262144,-4.646842 0.63252,-5.274097 0.111992,-0.07885 0.25038,-0.118969 0.419096,-0.112655 3.47959,0.129787 8.121373,2.404948 9.894486,5.842538 1.890975,3.666086 2.414721,6.891187 2.225187,9.488826 0.10171,0.0026 0.213514,0.02325 0.313676,0.02325 0.100299,0 0.212343,-0.02067 0.314193,-0.02325 -0.189534,-2.597639 0.334213,-5.82274 2.225187,-9.488826 1.773115,-3.43759 6.414892,-5.712746 9.894487,-5.842538 1.514697,-0.05649 0.545454,3.600546 1.050582,5.388302 2.686963,-5.207334 7.004203,-10.688043 13.447753,-15.759762 1.54507,-4.148249 2.78668,-8.842059 3.59513,-14.115934 C 118.4427,22.305848 110.60567,7.4983751 101.72971,0.52968343 97.139489,-3.0741718 91.762829,13.875639 86.015938,13.875639 80.807805,13.875639 75.904844,-0.04542167 71.61475,0.02687174 Z M 112.94814,48.812524 c -2.52035,6.766757 -5.85442,12.06147 -9.44231,16.056901 1.07316,-0.371842 2.08601,-0.700652 2.55281,-0.349332 0.1096,0.08214 0.19055,0.201391 0.23668,0.363802 0.95182,3.349394 0.22235,8.467247 -2.49907,11.215853 -2.61892,2.645076 -5.234416,4.102949 -7.581968,4.829162 0.03772,0.197177 0.09372,0.374885 0.138493,0.564824 2.331597,-0.802477 5.317755,-1.168399 9.012885,-0.564307 3.81727,0.62406 7.41525,4.33552 8.61395,7.604704 0.59521,1.623352 -4.39546,1.668329 -5.28237,3.161047 6.29556,0.736374 13.63876,3.290946 21.27984,8.496122 4.26915,0.14198 8.91166,-0.12303 13.95315,-0.947229 12.37124,-2.022485 24.03236,-14.051574 27.91716,-24.646557 2.00899,-5.479188 -15.77239,-5.354902 -17.54828,-10.820528 -1.6094,-4.953218 10.11539,-13.917877 8.72091,-17.975647 -0.14336,-0.420066 -0.42927,-0.788119 -0.88366,-1.092957 -9.37044,-6.288095 -25.87534,-9.165412 -37.07268,-3.530017 -4.67996,2.355338 -8.68853,4.936769 -12.11554,7.634159 z m 17.02894,51.378776 c -7.67556,-0.255269 -14.10407,-1.869364 -19.21175,-4.206978 0.36328,0.557216 0.61641,1.068409 0.49041,1.435055 -0.0443,0.129613 -0.13264,0.243388 -0.27285,0.337447 -2.89134,1.940249 -7.98405,2.828196 -11.439095,1.089339 -2.750267,-1.384156 -4.724874,-3.021638 -6.139677,-4.681885 -0.18577,0.111408 -0.372268,0.22186 -0.546737,0.338481 1.152846,1.863779 2.108302,4.263297 2.578137,7.328231 0.586086,3.82329 -1.832019,8.39225 -4.57078,10.54251 -0.999152,0.78445 -2.123098,-1.55421 -3.318661,-3.01945 1.229412,6.20849 1.056813,13.9636 -1.529622,22.81359 1.181715,4.04344 2.843771,8.30496 5.146456,12.76925 5.74643,11.14077 20.790399,18.51411 32.067289,18.93476 5.83185,0.21749 0.21859,-16.65546 4.86792,-20.0334 4.21347,-3.06127 16.36279,5.31899 19.79104,2.73885 0.3552,-0.26622 0.61635,-0.65135 0.76585,-1.17771 3.08472,-10.85493 0.72102,-27.44134 -8.09873,-36.3492 -3.54286,-3.57825 -7.09063,-6.48244 -10.5792,-8.85889 z m -43.960625,31.97634 c -2.583847,-8.84106 -2.758618,-16.58862 -1.53324,-22.79395 -1.035112,1.27063 -2.018084,3.16988 -2.910416,3.15484 -0.136942,-0.002 -0.272359,-0.0508 -0.405144,-0.15503 -2.738756,-2.15026 -5.156864,-6.71922 -4.57078,-10.54251 0.469836,-3.064934 1.425291,-5.464452 2.578137,-7.328231 -0.174468,-0.116621 -0.360968,-0.227073 -0.546736,-0.338481 -1.414804,1.660248 -3.389411,3.297729 -6.139677,4.681885 -3.455044,1.738857 -8.547754,0.850916 -11.439095,-1.089339 -0.536988,-0.360353 -0.29367,-1.008061 0.19792,-1.762167 -5.104283,2.332527 -11.526968,3.94172 -19.19211,4.196643 -3.48857,2.37645 -7.036343,5.28064 -10.579199,8.85889 -8.819755,8.90786 -11.183433,25.49426 -8.098731,36.3492 1.595287,5.61362 15.907561,-4.93908 20.556885,-1.56114 4.213469,3.06127 -0.0023,17.20541 3.510897,19.66857 0.36295,0.25554 0.810239,0.38528 1.357023,0.36483 11.276889,-0.42063 26.320868,-7.79399 32.067293,-18.93476 2.302713,-4.46434 3.965256,-8.72576 5.146973,-12.76925 z M 42.055314,100.1913 c 7.643879,-5.20708 14.989458,-7.761304 21.286556,-8.496639 -0.798064,-1.348366 -4.940357,-1.516782 -5.311304,-2.727482 -0.04039,-0.130875 -0.03592,-0.274542 0.02222,-0.433048 1.198687,-3.269184 4.796681,-6.980644 8.613945,-7.604704 3.695132,-0.604092 6.68129,-0.23817 9.012886,0.564307 0.04477,-0.189939 0.100775,-0.367647 0.138493,-0.564824 -2.34755,-0.726213 -4.963054,-2.184086 -7.581966,-4.829162 -2.721418,-2.748606 -3.450887,-7.866454 -2.499072,-11.215853 0.243309,-0.856174 1.447212,-0.492334 2.773991,-0.03256 C 64.929091,60.857886 61.600967,55.569503 59.084249,48.812524 55.657247,46.115133 51.648679,43.533703 46.968709,41.178365 35.771376,35.54297 19.266488,38.420272 9.8960368,44.708382 5.0501485,47.960288 19.509163,58.311373 17.733285,63.776986 16.12388,68.730219 1.3690864,69.091532 0.11213786,73.193982 c -0.130886,0.424154 -0.11557206,0.889839 0.0728638,1.403532 C 4.0697853,85.192497 15.730918,97.221586 28.102161,99.244071 c 5.041497,0.824199 9.683996,1.089209 13.953153,0.947229 z"
         style="fill:#ffd7ed;stroke:white;stroke-width:0.529167;stroke-linecap:round;stroke-dasharray:none;paint-order:stroke fill markers;stop-color:black"
         id="path31" />
      </g>
      <g
       id="g48"
       transform="translate(-253.33619,-16.137068)"
       style="stroke:white;stroke-width:0.529167;stroke-dasharray:none;stroke-opacity:1">
         <path
         id="path35"
         style="fill:#ff8ea4;stroke:white;stroke-width:0.529167;stroke-linecap:round;stroke-dasharray:none;stroke-opacity:1;paint-order:stroke fill markers;stop-color:black"
         d="m 326.83535,75.332353 c -0.16872,-0.0063 -0.30711,0.0338 -0.4191,0.112654 -0.89466,0.627256 -0.18396,3.685349 -0.63252,5.274097 -0.0949,0.336298 -0.2235,0.629769 -0.45062,0.794784 -0.72549,0.527096 -2.21185,-0.04377 -3.56929,-0.514181 -0.74631,-0.258627 -1.45355,-0.486873 -1.973,-0.484725 -0.40403,0.0017 -0.69454,0.142705 -0.80099,0.517281 -0.95181,3.349392 -0.22233,8.467254 2.49907,11.215853 2.61892,2.645071 5.23442,4.10295 7.58197,4.829163 3.20213,0.990578 5.89038,0.578357 7.26467,-0.42013 1.26528,-0.919271 2.4047,-3.049807 2.61948,-5.993432 0.18954,-2.597638 -0.33421,-5.822745 -2.22519,-9.488827 -1.77309,-3.437585 -6.41491,-5.71275 -9.89448,-5.842537 z" />
         <path
         d="m 312.33723,64.960982 c 2.51672,6.756985 5.84484,12.045354 9.42681,16.038815 1.35744,0.470406 2.8438,1.041279 3.5693,0.51418 0.22712,-0.165015 0.35566,-0.458484 0.45061,-0.794783 -2.68703,-5.206849 -7.00384,-10.687023 -13.44672,-15.758212 z"
         style="fill:#FFF5EE;stroke:white;stroke-width:0.529167;stroke-linecap:round;stroke-dasharray:none;stroke-opacity:1;paint-order:stroke fill markers;stop-color:black"
         id="path27" />
         <path
         id="path39"
         style="fill:#ff8ea4;stroke:white;stroke-width:0.529167;stroke-linecap:round;stroke-dasharray:none;stroke-opacity:1;paint-order:stroke fill markers;stop-color:black"
         d="m 323.17769,96.779622 c -1.01792,0.0156 -2.10347,0.109395 -3.2582,0.298173 -3.81727,0.624061 -7.41527,4.335515 -8.61394,7.604705 -0.0581,0.15851 -0.0626,0.30217 -0.0222,0.43305 0.37093,1.2107 4.51324,1.37911 5.3113,2.72748 1.85636,-0.21677 3.60991,-0.26378 5.26531,-0.19224 3.58526,-2.88543 5.88187,-6.09122 6.82026,-8.979293 0.10428,-0.320943 0.17059,-0.683248 0.25218,-1.029395 -1.60298,-0.551703 -3.51527,-0.896806 -5.75469,-0.86248 z m -2.57762,10.840678 c -0.18265,-9.7e-4 -0.36697,-4e-5 -0.55191,0.002 -0.0832,9.5e-4 -0.16693,0.003 -0.25063,0.005 -0.11542,0.002 -0.23146,0.005 -0.34778,0.008 -0.0771,0.002 -0.15403,0.004 -0.23151,0.007 -0.13472,0.005 -0.27027,0.0109 -0.40618,0.0176 -0.11496,0.006 -0.23041,0.0122 -0.34623,0.0191 -0.13491,0.008 -0.2701,0.0165 -0.40617,0.0263 -0.0764,0.006 -0.15321,0.0115 -0.22996,0.0176 -0.13914,0.011 -0.27876,0.0228 -0.4191,0.0357 -0.0669,0.006 -0.13381,0.0125 -0.20102,0.0191 -0.20384,0.02 -0.40858,0.041 -0.61495,0.0651 0.0363,0.0614 0.10394,0.1117 0.12557,0.17828 0.35118,1.08081 -1.34277,2.77601 -2.22002,4.12172 2.87233,-1.31258 5.32095,-2.85138 7.35976,-4.49224 -0.20692,-0.009 -0.41532,-0.0161 -0.62528,-0.0212 -0.21001,-0.005 -0.4215,-0.008 -0.63459,-0.009 z m 8.33231,-9.978198 c -0.0816,0.346146 -0.1479,0.708453 -0.25218,1.029395 -0.93839,2.888063 -3.23501,6.093863 -6.82026,8.979293 4.13203,0.17859 7.55732,1.18431 10.02109,2.66186 2.62866,-3.0847 3.23264,-6.25519 2.64119,-8.07548 -0.52267,-1.60861 -2.44177,-3.51158 -5.58984,-4.595068 z m -7.07244,10.008688 c -2.0388,1.64086 -4.48744,3.17966 -7.35976,4.49224 -0.49159,0.75409 -0.7349,1.40181 -0.19792,1.76216 2.89135,1.94026 7.98405,2.8282 11.4391,1.08934 2.75026,-1.38416 4.72487,-3.02164 6.13967,-4.68188 -0.15398,-0.0924 -0.31192,-0.18273 -0.47335,-0.2713 -2.42153,-1.32861 -5.67396,-2.22313 -9.54774,-2.39056 z" />
         <path
         d="m 295.30829,116.33976 c 7.66515,-0.25493 14.08783,-1.86412 19.19211,-4.19664 0.87725,-1.34571 2.5712,-3.04091 2.22002,-4.12172 -0.0216,-0.0666 -0.0892,-0.11686 -0.12557,-0.17828 -6.2971,0.73533 -13.64267,3.28955 -21.28656,8.49664 z"
         style="fill:#FFF5EE;stroke:white;stroke-width:0.529167;stroke-linecap:round;stroke-dasharray:none;stroke-opacity:1;paint-order:stroke fill markers;stop-color:black"
         id="path22" />
         <path
         id="path42"
         style="fill:#ff8ea4;stroke:white;stroke-width:0.529167;stroke-linecap:round;stroke-dasharray:none;stroke-opacity:1;paint-order:stroke fill markers;stop-color:black"
         d="m 332.42777,110.65113 c -1.15285,1.86378 -2.10831,4.2633 -2.57814,7.32823 -0.58609,3.82329 1.83204,8.39225 4.57078,10.54251 0.13279,0.10428 0.26821,0.15301 0.40515,0.15503 0.89233,0.015 1.87531,-1.88421 2.91041,-3.15485 0.38501,-1.94965 0.91018,-3.74041 1.53324,-5.37434 -1.63594,-4.29033 -3.97286,-7.45682 -6.42544,-9.23872 -0.12612,-0.0916 -0.2832,-0.1691 -0.416,-0.25786 z m 6.84144,9.49658 c -0.0779,0.20424 -0.15418,0.41097 -0.22892,0.62011 -0.0747,0.20915 -0.14768,0.42053 -0.21911,0.63459 -0.0714,0.21406 -0.14133,0.43059 -0.20929,0.64957 -0.068,0.21898 -0.13411,0.44065 -0.19844,0.66456 -0.0643,0.22391 -0.12706,0.45018 -0.18758,0.67903 -0.0605,0.22885 -0.11915,0.46022 -0.1757,0.69401 -0.0566,0.2338 -0.11088,0.47026 -0.1633,0.709 -0.0524,0.23875 -0.10277,0.47977 -0.1509,0.72347 0.50045,-0.61432 1.0095,-1.11827 1.53324,-1.11827 0.52233,0 1.03041,0.48682 1.52963,1.09864 -0.38462,-1.94231 -0.90863,-3.7261 -1.52963,-5.35471 z m 0,-14.46217 c -1.90666,0 -4.72265,1.54019 -6.84144,4.96559 0.1328,0.0888 0.28988,0.16626 0.416,0.25786 2.45258,1.7819 4.7895,4.9484 6.42544,9.23872 1.63595,-4.29025 3.97238,-7.45684 6.42493,-9.23872 0.12611,-0.0916 0.28321,-0.1691 0.416,-0.25786 -2.11879,-3.4254 -4.93426,-4.96559 -6.84093,-4.96559 z m 6.84093,4.96559 c -0.13279,0.0888 -0.28989,0.16626 -0.416,0.25786 -2.45255,1.78188 -4.78898,4.94848 -6.42493,9.23872 0.15526,0.40715 0.30454,0.82396 0.44701,1.25056 0.42738,1.27981 0.79415,2.64742 1.08262,4.10415 1.19555,1.46523 2.3195,3.8039 3.31866,3.01945 2.73875,-2.15025 5.15686,-6.71923 4.57078,-10.54251 -0.46984,-3.06493 -1.42529,-5.46446 -2.57814,-7.32823 z" />
         <path
         d="m 339.26943,148.3161 c 2.58644,-8.85 2.75904,-16.60509 1.52963,-22.81359 -0.49922,-0.61182 -1.00729,-1.09864 -1.52963,-1.09864 -0.52373,0 -1.03279,0.50395 -1.53324,1.11828 -1.22538,6.20534 -1.05061,13.95288 1.53324,22.79395 z"
         style="fill:#FFF5EE;stroke:white;stroke-width:0.529167;stroke-linecap:round;stroke-dasharray:none;stroke-opacity:1;paint-order:stroke fill markers;stop-color:black"
         id="path16" />
         <path
         d="m 364.01831,112.13278 c 5.10768,2.33762 11.53618,3.95171 19.21175,4.20698 -7.64109,-5.20518 -14.98427,-7.75975 -21.27984,-8.49612 -0.0368,0.0619 -0.11048,0.11063 -0.13229,0.17776 -0.35118,1.08081 1.3231,2.76575 2.20038,4.11138 z"
         style="fill:#FFF5EE;stroke:white;stroke-width:0.529167;stroke-linecap:round;stroke-dasharray:none;stroke-opacity:1;paint-order:stroke fill markers;stop-color:black"
         id="path13" />
         <path
         id="path45"
         style="fill:#ff8ea4;stroke:white;stroke-width:0.529167;stroke-linecap:round;stroke-dasharray:none;stroke-opacity:1;paint-order:stroke fill markers;stop-color:black"
         d="m 354.75767,96.779622 c -1.9819,0.03025 -3.69489,0.360932 -5.15214,0.86248 0.0816,0.346147 0.14789,0.708451 0.25218,1.029395 0.93839,2.888063 3.235,6.093863 6.82026,8.979293 1.65745,-0.0716 3.41314,-0.0247 5.27203,0.19276 0.88691,-1.49272 5.87757,-1.5377 5.28236,-3.16105 -1.19869,-3.26919 -4.79667,-6.980644 -8.61394,-7.604705 -1.38568,-0.226534 -2.6716,-0.316323 -3.86075,-0.298173 z m -5.15214,0.86248 c -3.14807,1.083488 -5.06717,2.986458 -5.58984,4.595068 -0.59143,1.82029 0.0125,4.99078 2.64119,8.07548 2.46376,-1.47755 5.88907,-2.48327 10.02109,-2.66186 -3.58525,-2.88543 -5.88187,-6.09124 -6.82026,-8.979293 -0.10428,-0.320944 -0.17058,-0.683249 -0.25218,-1.029395 z m 8.33283,9.978198 c -0.42636,0.002 -0.84637,0.0126 -1.26039,0.0305 2.03389,1.63689 4.47673,3.17142 7.34012,4.4819 -0.87728,-1.34563 -2.55156,-3.03057 -2.20038,-4.11138 0.0218,-0.0671 0.0955,-0.11587 0.13229,-0.17776 -0.20635,-0.0241 -0.41114,-0.0456 -0.61495,-0.0656 -0.0748,-0.007 -0.14927,-0.0139 -0.22376,-0.0207 -0.13974,-0.0128 -0.27899,-0.0248 -0.41754,-0.0357 -0.0508,-0.004 -0.10179,-0.008 -0.15245,-0.0119 -0.42555,-0.0314 -0.84505,-0.0535 -1.25935,-0.0682 -0.0342,-10e-4 -0.0682,-0.003 -0.10232,-0.004 -0.4186,-0.0135 -0.83252,-0.0197 -1.23972,-0.0176 -5.2e-4,1e-5 -10e-4,0 -0.002,0 z m -1.26039,0.0305 c -4.13201,0.17859 -7.55733,1.18431 -10.02109,2.66186 1.41479,1.66023 3.38941,3.29772 6.13967,4.68188 3.45504,1.73886 8.54776,0.85091 11.4391,-1.08934 0.14021,-0.0941 0.2286,-0.20784 0.27285,-0.33745 0.126,-0.36664 -0.12713,-0.87783 -0.49041,-1.43505 -2.86339,-1.31048 -5.30624,-2.84501 -7.34012,-4.4819 z" />
         <path
         d="m 339.58311,90.663806 c -0.10185,0.0026 -0.21389,0.02325 -0.31419,0.02325 -0.10016,0 -0.21197,-0.02068 -0.31368,-0.02325 -0.21478,2.943634 -1.3542,5.074159 -2.61948,5.993433 -1.3743,0.99849 -4.06253,1.41071 -7.26467,0.420129 -0.0377,0.197177 -0.0937,0.374885 -0.13849,0.564824 3.14808,1.08349 5.06717,2.986458 5.58984,4.595068 0.59145,1.82029 -0.0125,4.99078 -2.64118,8.07548 0.18576,0.1114 0.37226,0.22186 0.54673,0.33848 2.11879,-3.4254 4.93477,-4.96559 6.84144,-4.96559 1.90667,0 4.72214,1.54019 6.84093,4.96559 0.17447,-0.11662 0.36097,-0.22708 0.54674,-0.33848 -2.62867,-3.0847 -3.23263,-6.25519 -2.64119,-8.07548 0.52267,-1.60861 2.44176,-3.511578 5.58984,-4.595068 -0.0448,-0.189939 -0.10077,-0.367647 -0.13849,-0.564824 -3.20214,0.990581 -5.89037,0.578361 -7.26467,-0.420129 -1.26527,-0.919274 -2.4047,-3.049799 -2.61948,-5.993433 z"
         style="fill:none;stroke:white;stroke-width:0.529167;stroke-dasharray:none;stroke-opacity:1"
         id="path8" />
         <path
         id="path36"
         style="fill:#ff8ea4;stroke:white;stroke-width:0.529167;stroke-linecap:round;stroke-dasharray:none;stroke-opacity:1;paint-order:stroke fill markers;stop-color:black"
         d="m 358.72901,80.519116 c -0.52295,0.0079 -1.23263,0.243037 -1.97042,0.498678 -2.09777,2.336037 -4.27801,4.209704 -6.44095,5.673555 -1.17495,3.953731 -1.39494,7.540258 -0.8506,10.38593 2.34756,-0.726214 4.96305,-2.184087 7.58197,-4.829163 2.72141,-2.748605 3.45089,-7.866459 2.49907,-11.215853 -0.0461,-0.162411 -0.12708,-0.281658 -0.23668,-0.363802 -0.14587,-0.109787 -0.34469,-0.152952 -0.58239,-0.149345 z m -5.97586,0.201538 c -1.05784,2.050093 -1.86503,4.050982 -2.43551,5.970695 0.27036,-0.182981 0.54112,-0.37255 0.81183,-0.56844 0.27072,-0.195891 0.54117,-0.398193 0.81184,-0.607199 0.27067,-0.209005 0.5416,-0.424663 0.81184,-0.646988 0.27023,-0.222326 0.53984,-0.451447 0.80925,-0.687297 0.26941,-0.23585 0.53847,-0.47854 0.80667,-0.728121 0.2682,-0.249581 0.53594,-0.505945 0.80253,-0.769462 0.2666,-0.263517 0.53225,-0.534179 0.79685,-0.811837 0.26461,-0.277658 0.52791,-0.562207 0.79014,-0.854211 -1.35874,0.470792 -2.8274,1.023844 -3.55379,0.496094 -0.22703,-0.164945 -0.35669,-0.457127 -0.45165,-0.793234 z m -2.43551,5.970695 c -3.86403,2.615108 -7.64618,3.8941 -10.73475,3.972368 0.21478,2.943628 1.35421,5.07416 2.61948,5.993432 1.3743,0.998488 4.06254,1.410709 7.26467,0.42013 -0.54434,-2.845666 -0.32435,-6.432207 0.8506,-10.38593 z m 1.38492,-11.358996 c -3.47958,0.129791 -8.12138,2.404951 -9.89448,5.842537 -1.89098,3.666083 -2.41472,6.89119 -2.22519,9.488827 3.08857,-0.07827 6.87073,-1.357263 10.73475,-3.972368 0.57048,-1.919709 1.37767,-3.920606 2.43551,-5.970695 -0.50513,-1.787754 0.46411,-5.444791 -1.05059,-5.388301 z" />
         <path
         d="m 366.20112,64.960982 c -6.44356,5.071724 -10.76079,10.552423 -13.44775,15.759762 0.095,0.336107 0.22462,0.628288 0.45165,0.793233 0.72639,0.527752 2.19505,-0.0253 3.55379,-0.496094 3.5879,-3.995435 6.92195,-9.290138 9.44231,-16.056901 z"
         style="fill:#FFF5EE;stroke:white;stroke-width:0.529167;stroke-linecap:round;stroke-dasharray:none;stroke-opacity:1;paint-order:stroke fill markers;stop-color:black"
         id="path3" />
      </g>
   </g>
</svg>