<svg xmlns="http://www.w3.org/2000/svg" xmlns:xlink="http://www.w3.org/1999/xlink" version="1.1" width="60" height="60" viewBox="0 0 1000 1000" xml:space="preserve"><desc>Ishidoro Zen Gardens Inc, Logo</desc><defs></defs><rect x="0" y="0" width="100%" height="100%" fill="rgba(255,255,255,0)"/><g transform="matrix(0.772 0 0 0.772 499.9721 499.9727)" id="857320"><path style="stroke: none; stroke-width: 1; stroke-dasharray: none; stroke-linecap: butt; stroke-dashoffset: 0; stroke-linejoin: miter; stroke-miterlimit: 4; is-custom-font: none; font-file-url: none; fill: rgb(255,0,0); fill-rule: nonzero; opacity: 1;" vector-effect="non-scaling-stroke" transform=" translate(-600.0435, -600.0615)" d="m 600.08 14.324 c -81.566 0 -159.79 32.402 -217.47 90.078 c -57.676 57.676 -90.074 135.9 -90.074 217.46 c 0.17188 69.395 23.809 136.69 67.07 190.95 c 43.262 54.262 103.6 92.297 171.21 107.92 c -18.625 -19.535 -34.914 -41.199 -48.578 -64.531 v 0.003907 c -12.582 -0.22266 -24.328 -6.332 -31.73 -16.508 c -6.2578 -8.6094 -8.8359 -19.352 -7.1719 -29.859 c 1.6641 -10.512 7.4375 -19.934 16.051 -26.184 c 6.5469 -4.75 14.375 -7.4062 22.461 -7.6289 c 13.23 -0.375 25.797 5.8008 33.582 16.508 c 4.6289 6.3711 7.2812 13.961 7.625 21.828 c 0.34375 7.8672 -1.6328 15.66 -5.6914 22.41 c 9.1211 15.496 19.402 30.301 31.074 43.98 h 0.003906 c -2.2109 -15.363 -3.3906 -30.859 -3.5273 -46.383 c 0.050781 -89.363 34.508 -175.27 96.227 -239.9 c 61.715 -64.629 145.95 -103.01 235.21 -107.18 c -25.219 -51.82 -64.492 -95.516 -113.34 -126.1 c -48.848 -30.582 -105.31 -46.82 -162.94 -46.867 m 288.14 212.53 h 0.003906 c -30.809 0.43359 -61.375 5.4961 -90.676 15.016 c -65.844 21.574 -122.48 64.75 -160.71 122.53 c -38.238 57.785 -55.844 126.79 -49.965 195.82 c 7.4219 -13.867 15.738 -27.25 24.992 -40.008 c 6.6172 -8.9727 13.785 -17.531 21.234 -25.832 c -3.5508 -11.965 -1.332 -24.902 6.0078 -34.996 c 7.1914 -9.9023 18.508 -15.98 30.738 -16.504 c 9.043 -0.38672 17.953 2.3008 25.277 7.625 c 8.6133 6.25 14.387 15.672 16.055 26.184 c 1.6641 10.508 -0.91797 21.25 -7.1719 29.859 c -4.6094 6.3477 -10.977 11.203 -18.312 13.973 c -7.3398 2.7656 -15.328 3.3203 -22.977 1.5938 c -11.859 13.504 -22.691 27.785 -32.051 43.098 h -0.003906 c 46.844 -22.645 98.168 -34.488 150.2 -34.656 c 70.629 0.03125 139.57 21.578 197.65 61.766 c 58.078 40.188 102.54 97.113 127.46 163.2 c 41.484 -39.996 70.898 -90.848 84.883 -146.75 c 13.988 -55.906 11.984 -114.61 -5.7773 -169.44 c -20.297 -62.477 -60.07 -116.82 -113.49 -155.05 c -53.422 -38.234 -117.68 -58.359 -183.37 -57.426 m -623.02 3.1328 c -57.121 7.9375 -110.86 31.773 -155.08 68.793 c -44.219 37.016 -77.141 85.719 -95.008 140.55 c -16.684 51.348 -19.559 106.18 -8.332 158.98 c 11.223 52.809 36.152 101.73 72.277 141.85 c 36.125 40.121 82.172 70.023 133.52 86.707 c 65.848 21.215 136.93 19.609 201.75 -4.5586 c 64.824 -24.168 119.61 -69.488 155.49 -128.63 c -24.082 11.484 -49.406 20.152 -75.508 25.887 h -0.003907 c -4.0859 11.898 -13.523 21.191 -25.488 25.098 c -10.121 3.2891 -21.137 2.4219 -30.621 -2.4141 c -9.4844 -4.832 -16.656 -13.238 -19.938 -23.363 c -3.2852 -10.117 -2.418 -21.121 2.4102 -30.598 c 4.832 -9.4766 13.227 -16.648 23.34 -19.938 c 3.8242 -1.2422 7.8125 -1.9023 11.832 -1.957 c 11.754 -0.16406 22.992 4.8359 30.738 13.684 c 18.133 -4.0117 35.93 -9.4414 53.07 -16.633 c -80.348 -14.184 -153.14 -56.172 -205.66 -118.62 c -52.508 -62.445 -81.383 -141.37 -81.57 -222.96 c 0.13672 -31.059 4.4297 -61.957 12.773 -91.875 m 506.96 340.82 l -0.003906 -0.003906 c -37.898 1.2812 -75.238 9.5586 -110.13 24.418 c 26.367 4.7852 52.109 12.582 76.727 23.266 v 0.003906 c 7.1953 -5.0352 15.848 -7.5664 24.625 -7.2109 c 3.625 0.16016 7.207 0.8125 10.656 1.9336 c 10.113 3.2891 18.508 10.461 23.336 19.938 c 4.8281 9.4766 5.6992 20.48 2.4141 30.598 c -3.2852 10.117 -10.453 18.52 -19.93 23.352 c -9.4766 4.8359 -20.484 5.707 -30.605 2.4258 c -7.4648 -2.4258 -14.059 -6.9922 -18.957 -13.129 c -4.8945 -6.1367 -7.8867 -13.578 -8.5938 -21.398 c -16.875 -7.2344 -34.297 -13.117 -52.203 -17.234 c 62.301 64.57 97.223 150.73 97.465 240.45 c -0.007812 52.109 -11.734 103.55 -34.305 150.52 s -55.41 88.262 -96.094 120.83 c 50.855 27.066 108.29 39.305 165.77 35.32 s 112.67 -24.031 159.3 -57.859 c 43.672 -31.73 78.227 -74.402 100.18 -123.72 c 21.957 -49.316 30.547 -103.55 24.902 -157.24 c -5.6445 -53.688 -25.32 -104.95 -57.055 -148.62 c -29.395 -40.453 -68.207 -73.129 -113.08 -95.195 c -44.871 -22.066 -94.445 -32.859 -144.43 -31.441 m -119.98 107.64 c 3.4883 26.367 3.9297 53.059 1.3516 79.574 v -0.003906 c 9.9648 7.5703 15.824 19.352 15.852 31.863 c 0 10.637 -4.2266 20.844 -11.75 28.363 c -7.5195 7.5234 -17.723 11.75 -28.363 11.75 s -20.844 -4.2266 -28.363 -11.75 c -7.5234 -7.5195 -11.75 -17.727 -11.75 -28.363 c 0.003906 -7.8594 2.3203 -15.547 6.6562 -22.102 c 4.3359 -6.5547 10.504 -11.695 17.734 -14.773 c 1.7656 -18.559 2.0312 -37.227 0.41406 -55.812 c -29.512 55.691 -73.605 102.31 -127.57 134.88 c -53.965 32.562 -115.77 49.848 -178.8 49.996 c -67.875 -0.089844 -134.24 -20.043 -190.91 -57.402 c -10.07 56.758 -3.9844 115.21 17.562 168.68 c 21.547 53.465 57.688 99.801 104.3 133.72 c 65.984 47.938 148.31 67.699 228.87 54.941 c 80.559 -12.758 152.75 -56.996 200.69 -122.98 c 40.492 -56 60.941 -124.01 58.051 -193.06 c -2.8906 -69.047 -28.953 -135.11 -73.984 -187.53" stroke-linecap="round"/></g></svg>