<?xml version="1.0" standalone="no"?>
<!DOCTYPE svg PUBLIC "-//W3C//DTD SVG 20010904//EN"
 "http://www.w3.org/TR/2001/REC-SVG-20010904/DTD/svg10.dtd">
<svg version="1.0" xmlns="http://www.w3.org/2000/svg"
 width="640.000000pt" height="640.000000pt" viewBox="0 0 640.000000 640.000000"
 preserveAspectRatio="xMidYMid meet">
<metadata>
Created by potrace 1.14, written by Peter Selinger 2001-2017
</metadata>
<g transform="translate(0.000000,640.000000) scale(0.100000,-0.100000)"
fill="#000000" stroke="none">
<path d="M2593 6211 c-114 -91 -252 -261 -341 -419 -168 -301 -228 -601 -177
-892 19 -112 66 -301 95 -384 11 -33 20 -63 20 -67 0 -4 -37 19 -82 51 -159
113 -361 225 -482 266 -274 94 -668 77 -979 -40 -91 -34 -259 -121 -291 -151
-48 -44 -27 -117 74 -255 140 -191 210 -300 226 -355 15 -53 15 -57 -6 -99
-35 -74 -89 -103 -350 -186 -237 -75 -300 -113 -300 -178 0 -43 115 -261 190
-362 93 -124 231 -264 350 -354 100 -75 261 -161 366 -195 118 -37 376 -70
559 -72 l90 0 -29 -22 c-305 -231 -452 -388 -546 -582 -145 -297 -193 -661
-130 -990 16 -83 24 -104 47 -124 44 -38 129 -27 353 49 292 98 376 95 429
-19 25 -55 26 -63 31 -321 6 -282 14 -325 58 -349 57 -30 311 16 502 91 270
107 518 286 659 477 75 102 194 355 247 523 10 32 21 58 24 58 3 0 14 -26 24
-58 48 -153 170 -417 234 -507 200 -277 573 -501 959 -574 262 -50 264 -48
273 339 5 258 6 266 31 321 53 114 137 117 429 19 224 -76 309 -87 353 -49 23
20 31 41 47 125 63 326 15 692 -130 989 -86 177 -217 324 -453 508 l-119 92
151 7 c306 14 476 49 649 134 200 98 406 276 562 484 75 101 190 319 190 362
0 14 -9 37 -21 52 -35 44 -89 67 -351 151 -180 57 -257 102 -282 165 -15 39
-16 47 -1 96 15 53 86 165 225 354 101 138 122 211 74 255 -32 30 -200 117
-291 151 -311 117 -705 134 -979 40 -125 -42 -344 -164 -491 -273 -40 -29 -73
-49 -73 -45 0 5 9 35 20 68 25 72 74 266 90 354 58 321 3 612 -175 928 -116
206 -340 452 -412 452 -27 0 -81 -36 -121 -80 -12 -14 -66 -86 -119 -160 -121
-169 -191 -244 -249 -266 -41 -16 -47 -16 -88 0 -58 22 -128 97 -249 266 -108
152 -127 174 -178 213 -49 37 -78 34 -136 -12z m617 -2761 c0 -51 40 -143 81
-181 59 -57 131 -69 269 -44 31 6 29 4 -18 -19 -119 -57 -177 -131 -175 -221
2 -61 28 -135 72 -198 18 -26 27 -47 21 -47 -5 0 -10 4 -10 10 0 20 -117 127
-162 148 -95 44 -183 19 -280 -80 -32 -32 -58 -63 -58 -68 0 -6 -5 -10 -10
-10 -6 0 5 22 24 50 121 176 83 325 -106 416 -47 23 -49 25 -18 19 138 -25
226 -10 278 49 34 39 72 132 72 176 0 17 5 30 10 30 6 0 10 -13 10 -30z"/>
</g>
</svg>
