<?xml version="1.0" ?>
<svg enable-background="new 0 0 32 32" version="1.1" width="30px" height="30px" viewBox="0 0 32 32"
     xml:space="preserve" xmlns="http://www.w3.org/2000/svg"
     xmlns:xlink="http://www.w3.org/1999/xlink">
  <g id="Line">
    <g>
      <path d="M30,2v28H2V2H30 M31,1H1v30h30V1L31,1z" fill="#000cad" />
      <path d="M30,2v28H2V2H30 M31,1H1v30h30V1L31,1z" fill="#000cad" />
    </g>
    <g>
      <path d="M23.792,18.612V15.5c0-0.861-0.706-1.568-1.567-1.568h-0.773c-0.441,0-0.795-0.353-0.795-0.773    c0-3.002-2.45-5.452-5.452-5.452h-2.34c-2.56,0-4.657,2.097-4.657,4.657v6.246c0,2.56,2.097,4.68,4.657,4.68h6.246    C21.672,23.292,23.792,21.172,23.792,18.612L23.792,18.612z M12.865,17.817h5.452c0.442,0,0.795,0.354,0.795,0.795    c0,0.42-0.353,0.773-0.795,0.773h-5.452c-0.419,0-0.772-0.353-0.772-0.773C12.093,18.171,12.446,17.817,12.865,17.817    L12.865,17.817z M16.596,12.366c0,0.441-0.331,0.795-0.772,0.795h-2.958c-0.419,0-0.772-0.353-0.772-0.795    c0-0.419,0.353-0.772,0.772-0.772h2.958C16.265,11.593,16.596,11.946,16.596,12.366L16.596,12.366z"
            fill="#000cad" />
    </g>
  </g>
</svg>